<?xml version="1.0" encoding="utf-8"?>
<!-- Generator: Adobe Illustrator 16.2.1, SVG Export Plug-In . SVG Version: 6.00 Build 0)  -->
<!DOCTYPE svg PUBLIC "-//W3C//DTD SVG 1.1//EN" "http://www.w3.org/Graphics/SVG/1.1/DTD/svg11.dtd">
<svg version="1.1" id="Layer_1" xmlns="http://www.w3.org/2000/svg" xmlns:xlink="http://www.w3.org/1999/xlink" x="0px" y="0px"
	 width="186.67px" height="80px" viewBox="-3.335 -1.429 186.67 80" enable-background="new -3.335 -1.429 186.67 80"
	 xml:space="preserve">
<path d="M145.884-0.83v24.483c-1.905-5.271-4.88-9.913-8.881-13.746c-3.603-3.451-7.921-6.128-12.837-7.958
	c-4.997-1.86-10.51-2.805-16.38-2.805L73.825-0.861v24.593c-1.986-4.975-4.974-9.545-8.876-13.446
	C57.395,2.731,47.351-1.429,36.665-1.429c-10.684,0-20.729,4.16-28.285,11.715C0.826,17.843-3.335,27.887-3.335,38.571
	c0,10.686,4.161,20.729,11.715,28.285c7.556,7.554,17.601,11.716,28.285,11.716c10.686,0,20.73-4.162,28.284-11.716
	c3.902-3.902,6.89-8.471,8.876-13.446v24.536l33.961-0.006c5.87,0,11.382-0.943,16.38-2.805c4.916-1.832,9.234-4.51,12.837-7.959
	c3.999-3.832,6.977-8.475,8.881-13.746v24.543h37.451V-0.83H145.884z"/>
</svg>
