<?xml version="1.0" encoding="utf-8"?>
<!-- Generator: Adobe Illustrator 22.0.1, SVG Export Plug-In . SVG Version: 6.00 Build 0)  -->
<svg version="1.1" id="Artwork" xmlns="http://www.w3.org/2000/svg" xmlns:xlink="http://www.w3.org/1999/xlink" x="0px" y="0px"
	 viewBox="0 0 264.1 94.3" style="enable-background:new 0 0 264.1 94.3;" xml:space="preserve">
<style type="text/css">
	.st0{fill:#003764;}
</style>
<title>Artboard 1</title>
<g id="_Group_4">
	<g id="_Group_5">
		<path id="_Path_9" class="st0" d="M110.1,26c0.1-0.8-0.2-1.5-0.8-2c-0.6-0.4-1.4-0.6-2.2-0.5c-1.2,0-2.9,0.4-2.9,2
			c0,1.8,3.6,1.9,5.9,2.8c4.2,1.5,5.6,3.8,5.6,6.6c0,5.8-5.6,8.5-10.8,8.5c-5.5,0-10.5-2.5-10.2-8.6h7.2c-0.1,1,0.2,2,0.9,2.7
			c0.8,0.5,1.8,0.7,2.7,0.6c1.4,0,3.2-0.7,3.2-2.3c0-1.7-2.5-2-5.8-3.1c-2.9-1-5.7-2.5-5.7-6.5c0-5.4,5.2-7.9,10.1-7.9
			c5.1,0,9.7,1.9,9.6,7.8L110.1,26z"/>
		<path id="_Compound_Path_2" class="st0" d="M120.8,18.8h11.9c4.4,0,7.3,2.4,7.3,7.7c0,4.8-4.1,9-10.4,9h-5l-1.5,7.3h-7.3
			L120.8,18.8z M125.8,29.8h2.8c3,0,3.9-1.1,3.9-2.7c0-1.8-1.6-2.2-3.2-2.2h-2.5L125.8,29.8z"/>
		<path id="_Compound_Path_3" class="st0" d="M153.8,18.2c6.8,0,10.9,3.2,10.9,10.5c0,8.1-5.3,14.6-13.5,14.6
			c-6.8,0-10.9-3.6-10.9-10.5C140.4,24.7,145.7,18.2,153.8,18.2 M151.5,37.3c4.4,0,5.9-5.2,5.9-8.8c0-2.2-0.8-4.4-3.7-4.4
			c-4.4,0-5.9,5.2-5.9,8.8C147.8,35.1,148.6,37.3,151.5,37.3"/>
		<path id="_Compound_Path_4" class="st0" d="M168.6,18.8h12.1c4.4,0,7.8,1.2,7.8,6.3c0.1,3.3-2.3,6.2-5.6,6.6v0.1
			c2.2,0.6,2.5,2.7,2.5,4.9s-0.3,4.7,0.3,6.1h-7c-0.3-0.8-0.4-1.6-0.3-2.4c0-1.1,0.4-2.6,0.4-3.8s-0.9-2.2-3-2.2h-3.2l-1.7,8.4h-7.3
			L168.6,18.8z M173.7,29.2h3.9c2.5,0,3.6-1.2,3.6-2.7c0-0.9-0.6-2.1-2.5-2.1h-4L173.7,29.2z"/>
		<polygon id="_Path_10" class="st0" points="196.2,24.9 189.6,24.9 190.8,18.8 211.5,18.8 210.2,24.9 203.6,24.9 199.9,42.7 
			192.5,42.7 		"/>
		<polygon id="_Path_11" class="st0" points="99.6,51.2 119.4,51.2 118.2,57.4 105.8,57.4 105.1,60.4 116.6,60.4 115.4,66.1 
			103.9,66.1 103.3,69 116,69 114.7,75.2 94.6,75.2 		"/>
		<polygon id="_Path_12" class="st0" points="121.6,51.2 128.9,51.2 133.4,64.3 133.5,64.3 136.2,51.2 143.2,51.2 138.2,75.2 
			130.9,75.2 126.5,61.8 126.5,61.8 123.7,75.2 116.7,75.2 		"/>
		<path id="_Path_13" class="st0" d="M158.4,72.9L158.4,72.9c-1.6,1.9-4,3-6.5,2.9c-8.4,0-9.7-7.1-9.7-10.1c0-7.5,4.3-15,13.7-15
			c5.4,0,9.9,2.7,9.9,9h-7c-0.2-2.2-1.5-3-3.4-3c-4.1,0-5.9,4.3-5.9,8.5c0,2.8,1.2,4.7,4.2,4.7c2,0,3.7-0.7,4.4-2.7h-3.4l1.1-5.2
			h9.8l-2.8,13.2h-4.7L158.4,72.9z"/>
		<polygon id="_Path_14" class="st0" points="170.1,51.2 177.5,51.2 173.8,69 184.4,69 183.1,75.2 165.2,75.2 		"/>
		<path id="_Compound_Path_5" class="st0" d="M197.7,51.2h7.3l3.7,24h-7.3l-0.4-3.4h-7.8l-1.8,3.4h-7.5L197.7,51.2z M195.9,66.6h4.6
			l-0.8-7.2h-0.1L195.9,66.6z"/>
	</g>
	<g id="_Group_6">
		<polygon id="_Path_15" class="st0" points="214.7,51.2 222,51.2 226.5,64.3 226.6,64.3 229.3,51.2 236.3,51.2 231.3,75.2 
			224,75.2 219.6,61.8 219.5,61.8 216.8,75.2 209.7,75.2 		"/>
		<path id="_Compound_Path_6" class="st0" d="M238.5,51.2h11c4.4,0,9.9,2.8,9.5,10.6c-0.4,8-5.4,13.4-13.7,13.4h-11.8L238.5,51.2z
			 M242.2,69h3.6c4.8,0,5.9-5,5.9-7.2c0-3.6-1.9-4.5-4.3-4.5h-2.7L242.2,69z"/>
	</g>
	<g id="_Group_7">
		<path id="_Path_16" class="st0" d="M77.6,45.4c0,0.4,0.1,0.9,0.1,1.3c0,15.4-9.3,29.3-23.4,35.3l-0.1-12.9c0,0,0-11.1,6.8-17
			C65.6,48.1,71.5,45.7,77.6,45.4"/>
		<path id="_Path_17" class="st0" d="M24.8,82C10.5,76,1.3,62.1,1.3,46.6c0-0.4,0.1-0.9,0.1-1.3c6.1,0.4,12,2.8,16.7,6.8
			c6.8,5.9,6.7,17,6.7,17S24.8,82,24.8,82z"/>
		<path id="_Compound_Path_7" class="st0" d="M26,31.6c0-7.4,5.9-13.4,13.3-13.4s13.4,5.9,13.4,13.3s-5.9,13.4-13.3,13.4
			S26,38.9,26,31.6 M37.7,84.9h3.5v-18c0,0,0.1-14.9,10.6-23.7s23.4-10.4,23.4-10.4c-7.8-19.7-30-29.4-49.7-21.7
			C15.6,15,7.8,22.8,3.9,32.7c8.6,1.4,16.6,5,23.4,10.4C37.7,52,37.8,66.9,37.8,66.9v17.9L37.7,84.9z"/>
	</g>
</g>
</svg>
